<svg width="19" height="19" viewBox="0 0 19 19" fill="none" xmlns="http://www.w3.org/2000/svg">
<path d="M11.4109 8.99977L18.701 1.70977C18.8648 1.51847 18.9504 1.2724 18.9407 1.02072C18.9309 0.769043 18.8266 0.530305 18.6485 0.35221C18.4704 0.174116 18.2317 0.0697826 17.98 0.0600615C17.7283 0.0503403 17.4823 0.135947 17.291 0.299773L10.0009 7.58977L2.71095 0.289773C2.51965 0.125947 2.27357 0.040341 2.0219 0.0500622C1.77022 0.0597833 1.53148 0.164115 1.35339 0.34221C1.17529 0.520304 1.07096 0.759043 1.06124 1.01072C1.05152 1.2624 1.13712 1.50847 1.30095 1.69977L8.59095 8.99977L1.29095 16.2898C1.18627 16.3794 1.10125 16.4897 1.04122 16.6138C0.981202 16.7379 0.947471 16.873 0.942151 17.0107C0.936832 17.1484 0.960038 17.2858 1.01031 17.4141C1.06059 17.5424 1.13685 17.659 1.2343 17.7564C1.33175 17.8539 1.4483 17.9301 1.57663 17.9804C1.70495 18.0307 1.84228 18.0539 1.98 18.0486C2.11772 18.0433 2.25286 18.0095 2.37692 17.9495C2.50098 17.8895 2.6113 17.8045 2.70095 17.6998L10.0009 10.4098L17.291 17.6998C17.4823 17.8636 17.7283 17.9492 17.98 17.9395C18.2317 17.9298 18.4704 17.8254 18.6485 17.6473C18.8266 17.4692 18.9309 17.2305 18.9407 16.9788C18.9504 16.7271 18.8648 16.4811 18.701 16.2898L11.4109 8.99977Z" fill="#CAE0E1"/>
</svg>
